<?xml version="1.0" standalone="no"?>
<!DOCTYPE svg PUBLIC "-//W3C//DTD SVG 20010904//EN"
 "http://www.w3.org/TR/2001/REC-SVG-20010904/DTD/svg10.dtd">
<svg version="1.0" xmlns="http://www.w3.org/2000/svg"
 width="640.000000pt" height="640.000000pt" viewBox="0 0 640.000000 640.000000"
 preserveAspectRatio="xMidYMid meet">

<g transform="translate(0.000000,640.000000) scale(0.100000,-0.100000)"
fill="#000000" stroke="none">
<path d="M600 3775 l0 -1265 2580 0 2580 0 0 1265 0 1265 -2580 0 -2580 0 0
-1265z m5040 0 l0 -1135 -2455 0 -2455 0 0 1135 0 1135 2455 0 2455 0 0 -1135z
m-4966 687 l26 5 0 -707 0 -707 -26 5 c-15 3 -29 -1 -34 -8 -4 -7 -11 137 -15
319 -8 357 3 1121 15 1101 5 -7 19 -11 34 -8z m5034 0 c17 5 20 -1 26 -40 8
-60 6 -1321 -2 -1347 -5 -13 -16 -20 -33 -20 -26 -1 -27 2 -33 74 -8 98 -8
1108 1 1245 3 59 9 102 14 95 4 -6 16 -10 27 -7z"/>
<path d="M2149 4775 c-75 -24 -123 -64 -274 -231 -117 -129 -144 -165 -145
-189 0 -16 18 -97 41 -180 39 -144 76 -234 119 -295 11 -15 20 -33 20 -39 0
-16 -59 -57 -125 -88 -56 -25 -72 -27 -240 -33 -167 -6 -184 -8 -238 -33 -32
-14 -71 -35 -87 -47 -79 -56 -216 19 -194 106 4 15 55 81 114 146 122 135 169
213 177 293 6 60 -10 141 -34 168 -22 23 -66 22 -88 -3 -17 -19 -18 -26 -7
-66 29 -107 10 -148 -140 -315 -61 -68 -118 -139 -126 -159 -48 -113 16 -247
141 -295 l44 -17 -15 -41 c-13 -33 -17 -99 -20 -305 -4 -252 -3 -264 18 -306
16 -33 32 -50 64 -65 40 -20 59 -21 427 -21 332 0 388 2 407 16 20 14 22 24
22 101 0 67 -5 96 -21 130 -21 43 -83 103 -106 103 -7 0 -13 4 -13 9 0 10 155
49 232 58 26 3 48 3 48 -1 0 -28 41 -368 46 -381 4 -9 18 -21 31 -26 38 -14
413 -11 443 4 24 12 25 15 25 128 0 112 -1 117 -29 154 -16 20 -49 46 -73 57
-44 19 -44 20 -41 65 l3 45 61 23 c113 40 194 116 229 214 21 62 19 185 -5
262 -19 65 -75 166 -111 205 -11 12 -35 53 -54 93 l-34 71 104 0 c88 0 108 3
123 18 12 12 25 60 41 151 l23 132 -23 25 c-13 14 -77 71 -141 127 -92 79
-118 108 -118 127 0 38 -33 85 -73 103 -46 22 -357 23 -428 2z m381 -120 c0
-9 -36 -69 -80 -135 -44 -66 -80 -125 -80 -131 0 -7 47 -111 105 -231 58 -121
107 -223 108 -228 1 -4 -38 -54 -88 -110 -49 -57 -99 -114 -110 -127 l-21 -25
-124 73 c-139 82 -238 171 -282 254 -15 28 -45 115 -67 195 -31 114 -37 147
-28 160 7 9 66 76 131 148 106 116 139 144 196 165 8 3 88 6 178 6 139 1 162
-1 162 -14z m265 -350 c-13 -102 -5 -95 -114 -95 l-97 0 -42 85 -42 86 50 75
51 74 100 -87 101 -88 -7 -50z m-872 163 c-6 -7 -31 -39 -56 -70 l-46 -57 20
-68 c11 -37 22 -79 25 -93 29 -128 85 -237 161 -314 41 -42 153 -126 167 -126
2 0 37 -20 77 -45 40 -25 81 -45 90 -45 16 0 234 237 246 266 2 6 -44 114
-102 238 -62 133 -104 234 -100 244 3 9 19 33 36 52 17 19 28 29 24 23 -4 -9
2 -13 17 -13 13 0 30 6 37 13 8 6 -1 -10 -19 -37 l-33 -49 51 -104 52 -103
109 0 c75 0 112 4 119 13 5 6 16 47 23 91 l12 79 -51 47 c-29 27 -52 50 -52
53 0 2 12 2 26 -1 14 -2 29 0 33 6 4 7 27 -7 60 -36 l53 -47 -10 -55 c-6 -30
-14 -82 -18 -115 -10 -96 -8 -94 -137 -97 -106 -3 -112 -4 -115 -25 -4 -26 54
-143 98 -198 142 -177 158 -408 37 -533 -42 -44 -85 -69 -160 -97 l-62 -22 -3
-66 -3 -66 46 -22 c25 -12 47 -24 49 -28 3 -4 -28 -6 -67 -4 -54 1 -65 0 -42
-7 l30 -8 -35 1 c-32 2 -35 5 -42 42 -4 22 -7 108 -7 191 -1 127 2 154 15 165
28 23 49 -1 52 -60 2 -33 8 -54 17 -57 21 -9 98 30 144 72 64 57 75 85 76 189
0 80 -3 97 -31 155 -17 36 -41 76 -53 90 l-21 25 -57 -61 c-32 -33 -92 -100
-133 -147 -41 -47 -83 -86 -93 -87 -19 0 -269 145 -328 192 -44 34 -60 35 -85
7 -32 -36 -117 -87 -185 -109 -51 -17 -100 -23 -239 -29 -196 -8 -223 -16
-292 -88 -64 -66 -77 -110 -79 -253 -1 -177 -9 -225 -34 -225 -29 0 -33 23
-34 184 -1 106 3 160 15 202 20 70 16 84 -26 92 -50 11 -113 60 -138 109 -47
96 -23 165 105 300 156 163 185 223 163 329 -11 51 -11 62 0 69 37 23 72 -42
71 -128 0 -94 -48 -177 -177 -312 -112 -117 -132 -165 -99 -230 21 -41 79 -73
134 -74 36 -1 58 6 97 31 81 52 124 63 253 63 204 1 312 28 395 101 25 22 46
44 46 48 0 4 -22 44 -48 88 -27 45 -54 100 -60 124 -7 24 -28 104 -48 177
l-35 134 42 46 c55 60 58 62 90 55 15 -3 30 0 33 6 4 6 10 11 13 11 3 0 1 -6
-4 -12z m784 -727 c21 -45 27 -74 31 -146 3 -86 2 -92 -27 -137 -19 -31 -48
-58 -83 -77 -72 -42 -78 -40 -78 17 0 26 -5 53 -12 60 -16 16 -60 15 -84 -2
-17 -13 -19 -30 -22 -203 -3 -180 -2 -190 18 -216 15 -19 31 -27 54 -27 53 0
76 -24 76 -80 l0 -49 -135 1 c-75 1 -138 4 -140 8 -2 4 -16 117 -31 251 -28
261 -36 289 -81 289 -42 0 -63 -26 -63 -80 l0 -47 -81 -12 c-45 -7 -121 -24
-168 -38 -47 -14 -94 -27 -103 -30 -15 -5 -16 -1 -8 28 14 47 12 102 -2 121
-37 47 -108 15 -108 -48 0 -93 -87 -176 -197 -191 -27 -3 -56 -13 -65 -21 -23
-19 -23 -60 -1 -84 15 -16 35 -18 215 -18 158 0 205 -3 228 -15 35 -18 50 -43
50 -82 l0 -29 -340 -1 c-267 0 -342 3 -351 13 -7 9 -9 94 -7 261 3 248 3 248
30 299 59 112 133 144 332 144 192 0 277 24 393 111 29 22 55 39 58 39 4 0 21
-11 38 -24 18 -13 97 -63 175 -111 109 -66 150 -85 167 -81 14 4 77 66 146
146 94 105 126 137 136 129 7 -6 25 -36 40 -68z m-492 -351 c7 -11 34 -260 35
-310 0 -21 -5 -25 -29 -26 -28 -1 -29 0 -36 62 -10 95 -16 100 -111 85 -105
-16 -227 -49 -236 -64 -15 -23 -7 -37 32 -57 22 -11 40 -21 40 -23 0 -1 -111
-2 -247 -2 l-248 1 205 -6 205 -6 -205 1 -205 0 0 25 c0 22 5 26 45 31 128 19
211 98 229 217 6 48 30 67 54 43 13 -13 10 -96 -4 -122 -14 -26 0 -52 25 -46
12 3 83 21 159 41 77 20 154 36 172 36 59 0 65 6 65 71 0 56 1 59 24 59 14 0
28 -5 31 -10z"/>
<path d="M3090 3775 l0 -1016 63 3 62 3 3 1013 2 1012 -65 0 -65 0 0 -1015z
m68 687 c16 5 21 -1 26 -31 8 -47 8 -1309 0 -1349 -5 -24 -10 -29 -26 -24 -11
3 -23 -1 -27 -7 -12 -19 -21 272 -21 679 0 420 9 757 21 739 4 -6 16 -10 27
-7z"/>
<path d="M3935 4771 c-67 -31 -105 -86 -105 -152 l0 -29 -151 0 c-119 0 -158
-3 -185 -16 -43 -20 -64 -59 -64 -117 0 -133 110 -259 250 -287 117 -23 130
-44 130 -205 l0 -105 -32 0 c-91 0 -146 -40 -155 -112 -3 -23 -14 -55 -25 -70
-24 -34 -26 -100 -4 -133 33 -50 61 -60 187 -64 l116 -3 6 -48 c8 -63 39 -124
91 -178 53 -56 121 -91 210 -107 l71 -13 -86 -1 c-72 -1 -92 -5 -120 -24 -40
-27 -79 -82 -79 -111 0 -12 -14 -41 -30 -65 -39 -57 -41 -111 -5 -146 l24 -25
754 0 c572 0 756 3 765 12 22 22 14 57 -15 71 -16 8 -142 56 -280 107 l-253
93 0 236 c0 268 -9 322 -66 432 -62 117 -164 207 -291 256 -56 21 -92 27 -207
32 -187 9 -176 -7 -176 253 0 206 -4 231 -47 280 -14 15 -13 20 5 45 44 62 50
163 11 183 -24 13 -95 13 -121 -1 -16 -9 -24 -7 -42 10 -27 25 -30 25 -81 2z
m19 -108 c-7 -16 -14 -38 -14 -50 0 -14 -6 -23 -15 -23 -36 0 0 99 37 100 4 0
0 -12 -8 -27z m166 5 c0 -29 -48 -78 -77 -78 -13 0 -23 6 -23 13 1 22 27 60
51 73 35 19 49 17 49 -8z m-24 -201 c24 -28 24 -32 24 -222 0 -112 4 -206 11
-222 15 -42 68 -92 109 -103 19 -5 81 -10 137 -10 117 0 195 -20 273 -70 95
-61 175 -173 199 -281 6 -24 11 -159 11 -300 0 -189 3 -259 13 -271 6 -9 82
-42 167 -73 85 -31 157 -59 159 -61 2 -2 -116 -4 -262 -4 l-266 0 -3 153 -3
152 -35 0 -35 0 -3 -152 -3 -153 -284 0 c-183 0 -285 4 -285 10 0 6 9 19 20
30 18 18 33 20 186 20 95 0 174 4 185 10 16 9 19 22 19 87 0 142 -56 207 -191
224 -71 9 -135 34 -173 67 -29 27 -68 100 -76 143 l-7 40 50 21 c74 32 107 88
107 184 0 75 -5 84 -51 84 -24 0 -39 -36 -39 -95 0 -32 -7 -52 -24 -72 -24
-28 -25 -28 -166 -31 -156 -4 -185 0 -194 24 -13 34 12 44 109 44 64 0 96 4
103 13 7 8 12 93 13 239 1 197 -1 230 -16 262 -24 50 -78 84 -151 96 -97 16
-187 97 -200 182 -12 72 -25 69 277 66 l271 -3 24 -28z m65 -1 c0 5 4 0 9 -11
5 -11 9 -102 9 -203 1 -192 10 -240 48 -260 10 -5 74 -12 143 -15 99 -4 141
-10 198 -30 145 -50 237 -133 305 -275 l42 -87 3 -275 c1 -165 -1 -270 -7
-261 -7 11 -9 11 -14 0 -3 -8 -6 88 -6 212 -1 125 -6 250 -11 280 -35 182
-198 349 -378 388 -29 6 -96 11 -148 11 -111 0 -155 15 -184 62 -18 30 -20 50
-20 236 0 135 -4 211 -12 225 -10 20 -10 21 5 8 10 -7 17 -10 18 -5z m-672
-38 c25 -96 113 -179 208 -198 88 -18 112 -30 141 -68 l27 -35 0 -226 0 -226
-96 -5 c-60 -3 -102 -10 -113 -19 -21 -17 -21 -59 1 -83 14 -16 34 -18 175
-18 215 0 237 12 248 135 4 44 9 60 20 60 22 0 25 -79 5 -131 -19 -50 -43 -74
-98 -95 -36 -14 -42 -21 -45 -49 -5 -50 33 -131 86 -183 51 -51 103 -73 199
-87 70 -10 115 -37 138 -86 17 -36 22 -90 5 -64 -9 13 -10 13 -10 0 -1 -12 -3
-11 -11 3 -9 15 -27 17 -136 17 -106 0 -130 -3 -146 -17 -11 -10 -17 -12 -13
-5 4 6 3 12 -1 12 -5 0 -15 -6 -23 -12 -12 -11 -12 -10 0 5 27 36 66 47 160
47 75 0 92 3 97 16 12 32 -11 49 -82 57 -164 18 -267 110 -299 270 l-13 62
-124 5 c-135 5 -160 14 -179 59 -14 36 -7 72 22 111 11 15 17 33 13 39 -11 18
15 80 38 93 12 7 49 15 82 18 l60 5 3 132 c4 180 -13 209 -128 228 -127 21
-220 111 -237 230 -8 58 11 60 26 3z m1152 -1311 c-1 -4 -1 -20 -1 -37 0 -16
-4 -30 -10 -30 -5 0 -10 18 -10 41 0 25 4 39 11 37 6 -2 10 -7 10 -11z m-301
-97 c0 -19 -7 -20 -125 -20 -72 0 -125 4 -125 10 0 21 41 29 143 30 100 0 107
-1 107 -20z"/>
<path d="M3766 4448 c-20 -28 -4 -58 29 -58 35 0 52 36 29 61 -22 25 -39 24
-58 -3z"/>
<path d="M4373 3789 c-17 -17 -17 -56 -1 -65 7 -5 37 -11 66 -15 107 -15 204
-107 217 -207 9 -70 21 -92 49 -92 37 0 49 23 44 83 -13 155 -149 293 -303
304 -41 3 -64 1 -72 -8z m163 -40 c99 -44 179 -155 186 -259 2 -36 0 -45 -14
-48 -13 -2 -18 3 -18 20 -1 65 -43 150 -100 202 -49 44 -86 61 -153 71 -49 8
-63 17 -51 36 9 16 92 3 150 -22z"/>
<path d="M3691 3776 c-12 -13 -21 -32 -19 -43 3 -16 13 -18 78 -18 l75 0 0 40
0 40 -55 3 c-48 2 -59 0 -79 -22z m114 -21 c0 -17 -8 -20 -52 -23 -42 -2 -53
0 -53 12 0 22 30 36 70 33 28 -1 35 -6 35 -22z"/>
<path d="M5284 2325 c0 -66 1 -92 3 -57 2 34 2 88 0 120 -2 31 -3 3 -3 -63z"/>
<path d="M3612 2410 c0 -14 2 -19 5 -12 2 6 2 18 0 25 -3 6 -5 1 -5 -13z"/>
<path d="M2827 2393 c7 -5 14 -43 16 -93 l3 -85 0 89 c-1 71 -4 90 -16 93 -11
3 -11 2 -3 -4z"/>
<path d="M5088 2393 c7 -3 16 -2 19 1 4 3 -2 6 -13 5 -11 0 -14 -3 -6 -6z"/>
<path d="M1014 1960 c0 -52 1 -74 3 -47 2 26 2 68 0 95 -2 26 -3 4 -3 -48z"/>
<path d="M4932 2020 c0 -19 2 -27 5 -17 2 9 2 25 0 35 -3 9 -5 1 -5 -18z"/>
<path d="M2462 2015 c0 -16 2 -22 5 -12 2 9 2 23 0 30 -3 6 -5 -1 -5 -18z"/>
<path d="M3901 1914 c0 -11 3 -14 6 -6 3 7 2 16 -1 19 -3 4 -6 -2 -5 -13z"/>
</g>
</svg>
